<svg width="108" height="89" viewBox="0 0 108 89" fill="none" xmlns="http://www.w3.org/2000/svg">
<path d="M55.1765 0L0 10.6795L53.0561 43.2316L108 33.2043L55.1765 0Z" fill="black"/>
<path d="M0 10.6797V12.2286L53.096 46.2563L108 34.6882V33.2045L53.0561 43.2318L0 10.6797Z" fill="#2D2D2D"/>
<path d="M20.5259 47.2988L19.6817 54.1794C19.6817 54.1794 42.3346 76.4922 74.2866 65.5192L74.7785 60.1469C46.5355 65.9431 28.7548 54.7174 20.5259 47.2988Z" fill="#2D2D2D"/>
<path d="M87.7932 83.5293C84.8353 80.6515 82.7415 76.4123 81.7445 71.9449C81.6714 71.6106 81.3124 71.7329 81.2659 72.0182C81.1994 71.9122 81.0665 71.8959 80.9535 71.9612C80.9003 71.7329 80.5946 71.6269 80.4816 71.9041C78.4542 76.7221 80.0229 82.1678 81.3789 86.9369C81.4853 87.3119 81.8243 87.1081 81.7179 86.7331C80.6544 82.9994 79.5177 78.8254 80.1625 74.8878C79.8036 79.8607 81.1529 84.9478 83.6256 88.8935C83.8051 89.1788 84.0842 88.8364 83.9047 88.5511C81.6581 84.9722 80.5015 80.4232 80.6211 75.9069C80.6876 77.6841 80.9136 79.4613 81.3789 81.1325C82.0901 83.7005 83.2799 86.1543 84.4631 88.4288C84.6359 88.763 84.9151 88.4207 84.7423 88.0864C83.599 85.9016 82.6152 83.5537 81.904 81.0999C81.5983 80.0482 81.3988 78.9477 81.2726 77.8308C81.9572 81.4504 83.3796 84.8418 85.4269 87.6054C85.6396 87.8989 85.9254 87.638 85.7061 87.3446C83.4661 84.32 82.1167 80.4477 81.5584 76.4531C82.3826 80.195 83.8981 83.7331 85.9055 86.7739C86.1115 87.0837 86.3176 86.7494 86.1115 86.4396C84.1507 83.4722 82.8612 80.0075 82.0503 76.3552C83.1404 80.1216 84.5495 83.7494 87.0488 86.4315C87.2947 86.6924 87.5606 86.3907 87.3146 86.1299C85.5997 84.2874 84.4698 81.8091 83.5458 79.3145C84.5429 81.4912 85.746 83.5293 87.1418 85.3717C87.3612 85.6652 87.5473 85.2005 87.3279 84.9152C86.0982 83.2928 85.161 81.5075 84.2504 79.608C85.1876 81.1488 86.2777 82.5591 87.5207 83.7575C87.7733 83.9939 88.0458 83.7738 87.7932 83.5293Z" fill="#F0C64B"/>
<path d="M82.5953 31.4361C81.4454 29.7486 79.89 28.6398 78.2947 27.686C75.1241 25.8028 71.6012 24.9795 68.1647 24.1805C63.3058 23.0555 58.3405 22.012 54.3058 18.2538C54.1462 18.1071 54 18.1804 53.907 18.3272C53.9003 18.3353 53.8937 18.3435 53.887 18.3598C53.887 18.3679 53.8804 18.3679 53.8804 18.3761C53.7807 18.5228 53.7541 18.7348 53.9003 18.906C56.8582 22.3789 60.8132 24.0909 64.7083 25.3056C68.6433 26.5284 72.6581 27.3599 76.4269 29.2839C76.5465 29.3409 76.6595 29.4062 76.7792 29.4632C76.7991 29.4714 76.9254 29.5447 76.9254 29.5447C77.1182 29.6589 77.3109 29.7812 77.5037 29.8953C78.2083 30.3274 78.8929 30.7676 79.5377 31.3219C80.3087 31.9904 81.0266 32.8057 81.5251 33.8002C82.0702 34.8845 82.2563 36.1073 82.2364 37.371C82.2164 38.6835 82.017 39.996 81.8442 41.2841C81.6647 42.621 81.4985 43.9662 81.3324 45.3113C80.9867 48.0912 80.661 50.863 80.4151 53.6592C79.8767 59.8061 79.7305 66.0752 80.6344 72.1894C80.7009 72.646 81.3191 72.54 81.2925 72.0834C80.9402 66.2872 81.3257 60.4746 81.9904 54.7272C82.3228 51.8657 82.7216 49.0206 83.1271 46.1754C83.5126 43.5015 84.0178 40.8112 84.1906 38.1128C84.3568 35.6508 83.8981 33.3356 82.5953 31.4361Z" fill="#F0C64B"/>
<path d="M80.3818 72.6299C80.4416 72.5973 80.4948 72.5647 80.5546 72.5321C80.5879 72.5158 80.5879 72.5158 80.548 72.5321C80.5679 72.524 80.5812 72.5158 80.6012 72.5077C80.6278 72.4995 80.6543 72.4832 80.6809 72.475C80.8072 72.4261 80.9335 72.3935 81.0665 72.3691C81.0997 72.3609 81.1263 72.3528 81.1595 72.3528C81.0731 72.3609 81.1728 72.3528 81.1928 72.3528C81.2592 72.3446 81.3191 72.3446 81.3855 72.3446C81.452 72.3446 81.5118 72.3528 81.5783 72.3609C81.6115 72.3609 81.6381 72.3691 81.6713 72.3772C81.6913 72.3772 81.7046 72.3854 81.7245 72.3854C81.678 72.3772 81.678 72.3772 81.7179 72.3854C81.8109 72.4098 81.8907 72.4098 81.9771 72.3528C82.0502 72.3038 82.1167 72.2142 82.1366 72.1163C82.1765 71.9207 82.1034 71.6435 81.9173 71.6028C81.2858 71.456 80.6477 71.5457 80.0694 71.8962C79.9099 71.9941 79.8434 72.2631 79.9298 72.4506C80.0229 72.6544 80.2156 72.7278 80.3818 72.6299Z" fill="#D8A32B"/>
<path d="M80.3154 71.8233C80.3752 71.7907 80.4284 71.7581 80.4882 71.7255C80.5214 71.7092 80.5214 71.7092 80.4815 71.7255C80.5015 71.7173 80.5148 71.7092 80.5347 71.701C80.5613 71.6929 80.5879 71.6766 80.6145 71.6684C80.7408 71.6195 80.8671 71.5869 81 71.5624C81.0332 71.5543 81.0598 71.5461 81.0931 71.5461C81.0066 71.5543 81.1063 71.5461 81.1263 71.5461C81.1928 71.538 81.2526 71.538 81.3191 71.538C81.3855 71.538 81.4453 71.5461 81.5118 71.5543C81.545 71.5543 81.5716 71.5624 81.6049 71.5706C81.6248 71.5706 81.6381 71.5787 81.658 71.5787C81.6115 71.5706 81.6115 71.5706 81.6514 71.5787C81.7445 71.6032 81.8242 71.6032 81.9106 71.5461C81.9837 71.4972 82.0502 71.4075 82.0702 71.3097C82.11 71.1141 82.0369 70.8369 81.8508 70.7961C81.2193 70.6494 80.5812 70.739 80.0029 71.0896C79.8434 71.1874 79.777 71.4564 79.8634 71.6439C79.9564 71.8559 80.1492 71.9293 80.3154 71.8233Z" fill="#D8A32B"/>
<path d="M76.4269 43.9581L76.7061 41.2841L53.096 46.257L23.3708 27.2051L22.7327 31.7052L52.4978 50.0804L76.4269 43.9581Z" fill="#3E3E3E"/>
<path d="M52.4978 50.0807L22.7327 31.6973L20.5259 47.2926C28.7615 54.7031 46.5355 65.9288 74.7718 60.1406L76.4269 43.9502L52.4978 50.0807Z" fill="black"/>
</svg>
