<svg width="38" height="39" viewBox="0 0 38 39" fill="none" xmlns="http://www.w3.org/2000/svg">
    <path d="M32.956 21.08C33.036 20.48 33.076 19.86 33.076 19.2C33.076 18.56 33.036 17.92 32.936 17.32L36.996 14.16C37.356 13.88 37.456 13.34 37.236 12.94L33.396 6.3C33.156 5.86 32.656 5.72 32.216 5.86L27.436 7.78C26.436 7.02 25.376 6.38 24.196 5.9L23.476 0.82C23.396 0.34 22.996 0 22.516 0H14.836C14.356 0 13.976 0.34 13.896 0.82L13.176 5.9C11.996 6.38 10.916 7.04 9.936 7.78L5.156 5.86C4.716 5.7 4.216 5.86 3.976 6.3L0.156001 12.94C-0.0839993 13.36 -0.00399953 13.88 0.396 14.16L4.456 17.32C4.356 17.92 4.276 18.58 4.276 19.2C4.276 19.82 4.316 20.48 4.416 21.08L0.356001 24.24C-0.0039995 24.52 -0.103999 25.06 0.116001 25.46L3.956 32.1C4.196 32.54 4.696 32.68 5.136 32.54L9.916 30.62C10.916 31.38 11.976 32.02 13.156 32.5L13.876 37.58C13.976 38.06 14.356 38.4 14.836 38.4H22.516C22.996 38.4 23.396 38.06 23.456 37.58L24.176 32.5C25.356 32.02 26.436 31.38 27.416 30.62L32.196 32.54C32.636 32.7 33.136 32.54 33.376 32.1L37.216 25.46C37.456 25.02 37.356 24.52 36.976 24.24L32.956 21.08ZM18.676 26.4C14.716 26.4 11.476 23.16 11.476 19.2C11.476 15.24 14.716 12 18.676 12C22.636 12 25.876 15.24 25.876 19.2C25.876 23.16 22.636 26.4 18.676 26.4Z" fill="#999999"/>
    </svg>
    